<?xml version="1.0" encoding="utf-8"?>
<!-- Generator: Adobe Illustrator 23.0.3, SVG Export Plug-In . SVG Version: 6.00 Build 0)  -->
<svg version="1.1" id="Layer_1" xmlns="http://www.w3.org/2000/svg" xmlns:xlink="http://www.w3.org/1999/xlink" x="0px" y="0px"
	 viewBox="0 0 32 32" style="enable-background:new 0 0 32 32;" xml:space="preserve">
<style type="text/css">
	.st0{clip-path:url(#SVGID_2_);}
	.st1{clip-path:url(#SVGID_4_);}
</style>
<g>
	<path d="M23.3364258,27H8.6635742C6.6435547,27,5,25.3564453,5,23.3364258V8.6635742C5,6.6435547,6.6435547,5,8.6635742,5
		h14.6728516C25.3564453,5,27,6.6435547,27,8.6635742v14.6728516C27,25.3564453,25.3564453,27,23.3364258,27z M8.6635742,7
		C7.7460938,7,7,7.7460938,7,8.6635742v14.6728516C7,24.2539063,7.7460938,25,8.6635742,25h14.6728516
		C24.2539063,25,25,24.2539063,25,23.3364258V8.6635742C25,7.7460938,24.2539063,7,23.3364258,7H8.6635742z"/>
</g>
</svg>
